<svg width="31" height="35" viewBox="0 0 31 35" fill="none" xmlns="http://www.w3.org/2000/svg">
<path d="M21.2239 23.125C24.9484 17.2807 24.4802 18.0098 24.5875 17.8575C25.9435 15.9449 26.6602 13.6939 26.6602 11.3477C26.6602 5.12559 21.6111 0 15.3809 0C9.17096 0 4.10156 5.11547 4.10156 11.3477C4.10156 13.6924 4.83328 16.0023 6.23369 17.9406L9.53764 23.125C6.00517 23.6679 0 25.2856 0 28.8477C0 30.1461 0.847519 31.9966 4.8851 33.4386C7.70437 34.4455 11.4318 35 15.3809 35C22.7654 35 30.7617 32.917 30.7617 28.8477C30.7617 25.285 24.7636 23.669 21.2239 23.125ZM7.94671 16.8126C7.93543 16.795 7.92367 16.7778 7.91137 16.7608C6.74604 15.1577 6.15234 13.2577 6.15234 11.3477C6.15234 6.21947 10.2817 2.05078 15.3809 2.05078C20.4695 2.05078 24.6094 6.22132 24.6094 11.3477C24.6094 13.2608 24.0269 15.0963 22.9246 16.6572C22.8258 16.7875 23.3412 15.9869 15.3809 28.4778L7.94671 16.8126ZM15.3809 32.9492C7.31486 32.9492 2.05078 30.5783 2.05078 28.8477C2.05078 27.6845 4.75563 25.7718 10.7494 25.0263L14.5161 30.9369C14.7044 31.2323 15.0304 31.4111 15.3808 31.4111C15.7311 31.4111 16.0573 31.2322 16.2455 30.9369L20.0121 25.0263C26.006 25.7718 28.7109 27.6845 28.7109 28.8477C28.7109 30.5636 23.4942 32.9492 15.3809 32.9492Z" fill="#1B3B31"/>
</svg>
