<svg width="35" height="35" viewBox="0 0 35 35" fill="none" xmlns="http://www.w3.org/2000/svg">
<path d="M9.06306 29.6971C7.12527 30.8098 4.94099 31.2089 3.64757 31.352C3.79076 30.0586 4.18982 27.8743 5.30132 25.9354C5.5924 25.4295 5.41752 24.784 4.91165 24.4929C4.40109 24.2006 3.75907 24.3779 3.46916 24.8837C1.47855 28.3556 1.45508 32.3204 1.45508 32.4882C1.45508 33.0715 1.92808 33.5445 2.51142 33.5445C2.67926 33.5445 6.64404 33.5211 10.1159 31.5304C10.6217 31.2394 10.7966 30.595 10.5055 30.088C10.2168 29.5821 9.57245 29.406 9.06306 29.6971Z" fill="#1B3B31"/>
<path d="M34.9986 2.56455C35.0115 1.87089 34.7497 1.22066 34.2615 0.733568C33.7744 0.246479 33.0702 0.00586855 32.434 0C29.5091 0.0551643 21.6195 0.894366 14.1547 7.59507C12.8237 7.07747 10.8178 6.30869 9.29552 6.5047C7.05609 6.79225 3.7474 9.8392 0.506791 13.0904C0.0772134 13.5211 -0.094148 14.1315 0.0502182 14.723C0.193411 15.3169 0.627683 15.7829 1.20984 15.9695L6.36242 17.6244C5.97393 18.3333 5.5913 19.0587 5.22158 19.8239C4.75679 20.7864 4.95397 21.9425 5.71219 22.6984L12.3002 29.2864C12.7838 29.7711 13.4317 30.027 14.0854 30.027C14.4551 30.027 14.8284 29.946 15.1758 29.7782C15.9411 29.4085 16.6664 29.0258 17.373 28.6385L19.0291 33.7899C19.2157 34.3721 19.6817 34.8063 20.2767 34.9507C20.4141 34.9836 20.5526 35 20.6911 35C21.1429 35 21.5784 34.8228 21.9094 34.493C25.1605 31.2524 28.2075 27.9448 28.4939 25.7066C28.6922 24.1702 27.9211 22.1761 27.4035 20.8451C34.103 13.3803 34.9434 5.49061 34.9986 2.56455ZM2.43872 14.1467C4.1582 12.4343 7.89294 8.81573 9.5643 8.60094C10.3096 8.50587 11.4798 8.85916 12.4681 9.21714C10.7228 11.0211 9.02792 13.1831 7.44811 15.7547L2.43872 14.1467ZM14.2568 27.8756C14.1077 27.9484 13.9164 27.9155 13.7944 27.7934L7.20515 21.2042C7.08426 21.0833 7.05022 20.8932 7.12416 20.7418C15.3296 3.7453 28.6019 2.18662 32.4751 2.11385H32.4845C32.6242 2.11385 32.7157 2.17606 32.7697 2.23005C32.8143 2.27465 32.8906 2.37324 32.8882 2.52582C32.8131 6.39906 31.2533 19.6714 14.2568 27.8756ZM26.3988 25.4366C26.184 27.1068 22.5655 30.8427 20.853 32.561L19.2427 27.5528C21.8167 25.973 23.9786 24.277 25.7826 22.5317C26.1418 23.5188 26.4951 24.6866 26.3988 25.4366Z" fill="#1B3B31"/>
<path d="M27.0396 14.2301C28.7673 12.5012 28.7673 9.68899 27.0396 7.96012C25.3636 6.28641 22.4434 6.28641 20.7697 7.96012C19.9328 8.79697 19.4716 9.91082 19.4716 11.0951C19.4716 12.2794 19.934 13.3932 20.7697 14.2301C21.6065 15.0669 22.7204 15.5282 23.9047 15.5282C25.0889 15.5282 26.2016 15.0669 27.0396 14.2301ZM25.5443 12.7359C24.6676 13.6139 23.1382 13.6139 22.2638 12.7359C21.8248 12.2981 21.5831 11.7148 21.5831 11.0951C21.5831 10.4754 21.8248 9.89321 22.2638 9.45425C22.7016 9.01645 23.2838 8.77467 23.9035 8.77467C24.522 8.77467 25.1054 9.01645 25.5432 9.45425C26.4493 10.3592 26.4493 11.831 25.5443 12.7359Z" fill="#1B3B31"/>
</svg>
