<svg width="37" height="35" viewBox="0 0 37 35" fill="none" xmlns="http://www.w3.org/2000/svg">
<path d="M34.7943 14.4496C34.3487 14.0162 34.0216 13.6311 33.7184 13.2071C33.1605 12.5908 33.2977 11.3933 33.4303 10.2352C33.542 9.2032 33.6837 8.144 33.3226 7.22885C32.3211 5.10977 29.614 5.58527 27.9469 4.80571C26.5549 4.13914 25.9986 1.45052 24.6598 0.498609C23.2417 -0.533651 21.5703 0.262801 20.2655 0.909505C19.4697 1.30648 18.7853 1.64478 18.1797 1.58314C17.6567 1.60095 16.9146 1.23891 16.1956 0.882111C13.6567 -0.449418 11.8492 -0.575654 10.2983 2.6501C9.57215 3.95333 9.06789 4.75959 8.18949 4.96527C6.17884 5.61951 2.65267 5.2844 2.97614 9.05254C3.02659 10.1578 3.42858 11.6092 3.12452 12.568C2.99418 13.1295 2.42782 13.7103 1.82472 14.3332C0.800678 15.3927 -0.747027 16.9933 0.412611 18.9225C1.11296 20.1579 2.67368 21.1644 3.12315 22.4112C3.34572 22.9141 3.22724 23.7309 3.11174 24.5488C2.9193 25.9018 2.68897 27.6077 3.89655 28.6849C4.91899 29.5806 6.93169 29.5946 8.2566 30.0402C10.2787 30.5949 10.4506 34.7282 13.1666 34.9903C14.15 35.0723 15.0587 34.6207 16.068 34.1514C16.7964 33.8062 17.4981 33.4746 18.0759 33.4243C18.7093 33.3264 19.6469 33.7681 20.4746 34.1578C23.4077 35.7089 24.902 35.0526 26.3029 32.2394C26.9918 30.9489 27.4872 30.1511 28.551 29.9525C30.1603 29.4398 32.2739 29.7553 33.3141 27.7736C34.0296 26.2558 32.9601 23.8943 33.4114 22.3923C33.5899 21.8054 34.122 21.2509 34.6856 20.664C37.0229 18.3728 37.2062 16.7424 34.7947 14.4496H34.7943ZM33.0386 19.0827C31.143 20.916 30.7342 22.3916 31.1604 25.022C31.2453 25.6899 31.3409 26.4425 31.2403 26.8098C30.8465 27.4248 28.9048 27.3837 28.0435 27.7259C25.8879 28.1694 24.965 29.8979 24.2888 31.1642C23.8215 32.0396 23.4999 32.595 23.1045 32.7153C21.4726 32.3706 19.6389 30.8343 17.7586 31.1635C16.3597 31.2477 14.6748 32.501 13.4101 32.7183C13.0374 32.6304 12.611 31.8458 12.2334 31.1509C11.0285 28.8095 10.0203 27.8631 7.12938 27.4346C6.54203 27.3235 5.66317 27.1575 5.39723 26.9635C5.12056 26.658 5.25958 25.666 5.37189 24.8656C5.87136 22.2516 5.22374 20.7907 3.43497 19.0131C3.01426 18.5696 2.61661 18.1502 2.36345 17.7377C2.16371 17.4054 2.39039 17.0317 3.46556 15.9195C6.02133 13.4993 5.59651 11.9083 5.24269 8.77884C5.14749 8.11296 5.11873 7.91185 7.1764 7.53382C11.0114 7.02203 11.3233 5.21295 13.0449 2.52341C13.3156 2.17027 13.5553 2.11936 15.1804 2.92609C16.1063 3.38583 17.1541 3.90493 18.2573 3.86384C19.3017 3.92548 20.3022 3.43332 21.2703 2.9585C22.0106 2.59532 22.9267 2.14516 23.2867 2.32458C24.4877 3.67985 25.0656 6.13815 27.048 6.90401C27.7184 7.25396 28.5147 7.38704 29.2855 7.51625C30.0446 7.64339 30.9803 7.79976 31.2268 8.14948C31.4272 10.1679 30.2991 12.7657 31.9653 14.6702C32.3164 15.1863 32.7487 15.6255 33.1674 16.0508C33.6999 16.5916 34.2494 17.1497 34.2428 17.5421C34.0213 18.0589 33.5431 18.557 33.0384 19.0825L33.0386 19.0827Z" fill="#1B3B31"/>
<path d="M23.794 12.6573L16.7746 19.7074L12.7364 15.6516C11.6512 14.6134 10.0818 16.167 11.1188 17.2625L15.9658 22.1305C16.3908 22.5745 17.1581 22.575 17.5834 22.1305L25.4116 14.2682C26.4445 13.1782 24.8863 11.6159 23.794 12.6573Z" fill="#1B3B31"/>
</svg>
